<svg width="53" height="53" viewBox="0 0 53 53" fill="none" xmlns="http://www.w3.org/2000/svg">
<g clip-path="url(#clip0_181_329)">
<path d="M0 25.3272C0 13.3878 0 7.41816 3.70908 3.70908C7.41816 0 13.3878 0 25.3272 0H27.4378C39.3772 0 45.3468 0 49.0559 3.70908C52.765 7.41816 52.765 13.3878 52.765 25.3272V27.4378C52.765 39.3772 52.765 45.3468 49.0559 49.0559C45.3468 52.765 39.3772 52.765 27.4378 52.765H25.3272C13.3878 52.765 7.41816 52.765 3.70908 49.0559C0 45.3468 0 39.3772 0 27.4378V25.3272Z" fill="#0077FF"/>
<path d="M27.9848 37.9909C15.7259 37.9909 8.73373 29.6721 8.44238 15.8296H14.583C14.7847 25.9896 19.3117 30.2932 22.8974 31.1806V15.8296H28.6797V24.5921C32.2207 24.2149 35.9405 20.2219 37.1955 15.8296H42.9777C42.014 21.2424 37.98 25.2354 35.1114 26.877C37.98 28.208 42.5745 31.6908 44.3226 37.9909H37.9576C36.5905 33.776 33.1844 30.515 28.6797 30.0714V37.9909H27.9848Z" fill="white"/>
</g>
<defs>
<clipPath id="clip0_181_329">
<rect width="52.765" height="52.765" fill="white"/>
</clipPath>
</defs>
</svg>
