<svg width="50" height="50" viewBox="0 0 50 50" fill="none" xmlns="http://www.w3.org/2000/svg">
<path d="M25 49.9492C38.779 49.9492 49.9491 38.7791 49.9491 25.0001C49.9491 11.2211 38.779 0.0510254 25 0.0510254C11.221 0.0510254 0.0509033 11.2211 0.0509033 25.0001C0.0509033 38.7791 11.221 49.9492 25 49.9492Z" fill="#FC3F1D"/>
<path d="M33.8241 39.3287H28.3472V12.2407H25.9074C21.4352 12.2407 19.0926 14.4768 19.0926 17.8148C19.0926 21.6018 20.7083 23.3565 24.0509 25.5926L26.8056 27.4491L18.8889 39.324H13L20.125 28.7222C16.0278 25.7963 13.7222 22.9398 13.7222 18.1204C13.7222 12.0972 17.9213 8 25.8704 8H33.787V39.3194H33.8241V39.3287Z" fill="white"/>
</svg>
